#!OML:ASF H:\Dans Jumps\Project 1\Capture day 1\Session 1\subject.ASF
:FULLY-SPECIFIED
:DEGREES
282
root 0.477791 16.1924 -12.6887 17.4571 -1.05568 -1.05011
lowerback 12.7904 0.0232235 -2.65022
upperback -0.182473 -0.197687 2.24237
thorax -7.3714 0.0474834 3.92454
lowerneck -19.8731 0.245948 -2.34412
upperneck 22.6206 1.00121 0.327931
head 10.5391 0.290914 0.655369
rclavicle 1.19271e-015 1.03368e-014
rhumerus -18.8149 -8.9146 -81.1736
rradius 30.4539
rwrist 28.5306
rhand -20.0457 -26.8395
rfingers 7.12502
rthumb 6.29567 -56.726
lclavicle 1.19271e-015 1.03368e-014
lhumerus -12.1345 1.84289 84.9677
lradius 17.9249
lwrist 7.69137
lhand -24.4351 -4.51068
lfingers 7.12502
lthumb 2.05712 25.4591
rfemur -36.5278 -1.85178 20.5183
rtibia 55.1775
rfoot -28.9846 -15.316
rtoes -11.1787
lfemur -36.6115 8.3439 -19.7725
ltibia 55.3344
lfoot -24.8616 16.518
ltoes -21.5219
283
root 0.483285 16.3786 -12.4834 16.7621 -1.08414 -0.880416
lowerback 11.6419 -0.0478746 -2.58741
upperback 0.0277653 -0.274919 2.07805
thorax -6.49175 -0.0170331 3.70519
lowerneck -18.8712 0.270108 -2.35548
upperneck 22.9419 0.995057 0.390341
head 10.4661 0.292714 0.67607
rclavicle 4.67144e-015 3.97569e-015
rhumerus -18.6382 -7.80794 -81.6857
rradius 30.9095
rwrist 28.2923
rhand -19.8273 -26.8921
rfingers 7.12502
rthumb 6.50653 -56.7721
lclavicle 4.67144e-015 3.97569e-015
lhumerus -12.073 0.122146 85.1733
lradius 18.7763
lwrist 9.39281
lhand -24.8555 -5.01285
lfingers 7.12502
lthumb 1.65113 24.9605
rfemur -33.8209 -2.33434 20.2689
rtibia 52.8853
rfoot -27.5992 -14.3025
rtoes -12.2717
lfemur -34.0633 8.47308 -19.7194
ltibia 53.2923
lfoot -23.3445 15.1971
ltoes -22.3772
284
root 0.489 16.577 -12.2753 16.0851 -1.09923 -0.720623
lowerback 10.434 -0.122958 -2.51853
upperback 0.268149 -0.35436 1.92087
thorax -5.55158 -0.0824003 3.49038
lowerneck -17.7948 0.304323 -2.32809
upperneck 23.1755 1.00098 0.405018
head 10.3463 0.298465 0.673926
rclavicle 6.95746e-015 -1.11319e-014
rhumerus -18.4863 -6.73319 -82.162
rradius 31.3482
rwrist 27.9733
rhand -19.6765 -26.848
rfingers 7.12502
rthumb 6.6521 -56.7235
lclavicle 6.95746e-015 -1.11319e-014
lhumerus -12.0636 -1.48957 85.3389
lradius 19.6806
lwrist 10.9992
lhand -25.1634 -5.4956
lfingers 7.12502
lthumb 1.35377 24.4799
rfemur -31.2087 -2.80726 19.9887
rtibia 50.6473
rfoot -25.8495 -13.0304
rtoes -13.3724
lfemur -31.6436 8.59201 -19.6335
ltibia 51.3308
lfoot -21.5196 13.5111
ltoes -23.0114
285
root 0.494746 16.789 -12.0662 15.416 -1.10932 -0.576207
lowerback 9.2204 -0.196186 -2.44991
upperback 0.533897 -0.429976 1.77695
thorax -4.58688 -0.144518 3.28979
lowerneck -16.6706 0.338758 -2.29593
upperneck 23.3351 1.01119 0.394424
head 10.1898 0.304367 0.66175
rclavicle 1.98785e-016 -1.37161e-014
rhumerus -18.3638 -5.68869 -82.6004
rradius 31.7998
rwrist 27.543
rhand -19.5526 -26.7694
rfingers 7.12502
rthumb 6.77175 -56.6411
lclavicle 1.98785e-016 -1.37161e-014
lhumerus -12.102 -2.99598 85.4779
lradius 20.6195
lwrist 12.5104
lhand -25.3933 -5.93762
lfingers 7.12502
lthumb 1.13175 24.0391
rfemur -28.6339 -3.23383 19.677
rtibia 48.3018
rfoot -23.5947 -11.4649
rtoes -14.3
lfemur -29.2773 8.69591 -19.5066
ltibia 49.2535
lfoot -19.2376 11.4289
ltoes -23.3338
